<?xml version="1.0" standalone="no"?>
<!DOCTYPE svg PUBLIC "-//W3C//DTD SVG 20010904//EN"
 "http://www.w3.org/TR/2001/REC-SVG-20010904/DTD/svg10.dtd">
<svg version="1.0" xmlns="http://www.w3.org/2000/svg"
 width="700.000000pt" height="700.000000pt" viewBox="0 0 700.000000 700.000000"
 preserveAspectRatio="xMidYMid meet">
<metadata>
Created by potrace 1.14, written by Peter Selinger 2001-2017
</metadata>
<g transform="translate(0.000000,700.000000) scale(0.100000,-0.100000)"
fill="#000000" stroke="none">
<path d="M3457 6754 c-1 -1 -60 -4 -132 -8 -71 -3 -146 -8 -165 -11 -19 -2
-57 -7 -84 -11 -27 -3 -56 -7 -65 -9 -9 -1 -36 -6 -61 -10 -180 -28 -448 -105
-660 -190 -199 -80 -496 -243 -635 -348 -5 -4 -41 -31 -80 -59 -226 -166 -473
-414 -651 -653 -600 -807 -795 -1837 -533 -2814 239 -891 855 -1644 1684
-2059 44 -22 109 -52 145 -66 36 -15 79 -34 97 -42 89 -40 358 -122 508 -155
33 -7 65 -14 70 -15 39 -9 190 -30 275 -39 30 -3 78 -8 105 -10 58 -6 388 -6
455 0 25 2 68 6 95 9 28 4 73 9 100 11 76 9 337 62 436 90 712 200 1334 641
1768 1253 192 272 355 604 451 924 22 75 43 144 45 155 2 10 15 70 29 133 23
107 46 262 61 421 8 88 9 406 0 494 -56 597 -215 1066 -523 1545 -50 77 -151
218 -177 246 -5 6 -28 33 -50 60 -300 369 -760 711 -1215 902 -178 75 -437
157 -595 187 -85 16 -257 44 -305 49 -86 10 -387 24 -393 20z m216 -598 c93
-6 166 -15 327 -41 78 -13 325 -83 400 -113 14 -5 45 -18 70 -27 181 -71 575
-298 575 -332 0 -17 -1539 -1573 -1563 -1581 -11 -3 -1546 1543 -1550 1562 -1
6 15 22 36 34 22 12 45 29 52 37 34 41 298 188 465 260 97 41 305 113 354 122
14 2 28 6 31 8 4 2 22 7 41 10 19 3 53 10 77 16 23 5 59 12 80 15 20 3 62 9
92 14 30 5 107 12 170 16 63 3 116 7 117 8 3 2 102 -1 226 -8z m1997 -1163
c242 -365 381 -765 429 -1238 10 -93 7 -412 -4 -500 -59 -470 -197 -847 -442
-1211 -31 -46 -61 -89 -68 -94 -9 -7 -219 200 -751 737 -406 410 -750 757
-764 769 -13 13 -20 27 -16 31 4 4 335 338 734 742 832 839 823 831 831 831 4
0 26 -30 51 -67z m-3165 -1104 c217 -217 395 -400 397 -406 2 -6 -330 -347
-737 -758 -407 -411 -743 -752 -746 -756 -18 -29 -196 261 -290 471 -250 559
-300 1173 -145 1775 63 243 188 530 322 739 l57 89 375 -379 c206 -209 551
-557 767 -775z m1731 -1745 c412 -416 750 -760 752 -764 2 -5 -23 -25 -55 -46
-32 -20 -60 -40 -63 -44 -8 -11 -144 -86 -250 -137 -233 -112 -452 -179 -745
-228 -126 -21 -493 -28 -645 -12 -398 41 -821 193 -1148 411 l-103 70 95 95
c52 53 212 215 356 361 434 440 1044 1050 1051 1050 3 0 343 -340 755 -756z"/>
</g>
</svg>
